<?xml version="1.0" ?>
<svg xmlns="http://www.w3.org/2000/svg" width="1024" height="1024" viewBox="0 0 1024 1024">
   <rect width="1024" height="1024" fill="url(#grad)"/>
   <defs>
      <linearGradient id="grad" x1="0" y1="0" x2="0" y2="1">
         <stop offset="0%" style="stop-color:#2b0040;stop-opacity:1"/>
         <stop offset="100%" style="stop-color:#0a0025;stop-opacity:1"/>
      </linearGradient>
   </defs>
   <path d="M0,700 L200,500 L400,650 L600,450 L800,650 L1024,500 L1024,1024 L0,1024 Z" fill="none" stroke="#ff00ff" stroke-width="3"/>
   <line x1="0" y1="700" x2="1024" y2="700" stroke="#00ffff" stroke-width="1" opacity="0.3"/>
   <line x1="0" y1="740" x2="1024" y2="740" stroke="#00ffff" stroke-width="1" opacity="0.3"/>
   <line x1="0" y1="780" x2="1024" y2="780" stroke="#00ffff" stroke-width="1" opacity="0.3"/>
   <line x1="0" y1="820" x2="1024" y2="820" stroke="#00ffff" stroke-width="1" opacity="0.3"/>
   <line x1="0" y1="860" x2="1024" y2="860" stroke="#00ffff" stroke-width="1" opacity="0.3"/>
   <line x1="0" y1="900" x2="1024" y2="900" stroke="#00ffff" stroke-width="1" opacity="0.3"/>
   <line x1="0" y1="940" x2="1024" y2="940" stroke="#00ffff" stroke-width="1" opacity="0.3"/>
   <line x1="0" y1="980" x2="1024" y2="980" stroke="#00ffff" stroke-width="1" opacity="0.3"/>
   <line x1="0" y1="1020" x2="1024" y2="1020" stroke="#00ffff" stroke-width="1" opacity="0.3"/>
   <line x1="0" y1="700" x2="0" y2="1024" stroke="#00ffff" stroke-width="1" opacity="0.3"/>
   <line x1="40" y1="700" x2="40" y2="1024" stroke="#00ffff" stroke-width="1" opacity="0.3"/>
   <line x1="80" y1="700" x2="80" y2="1024" stroke="#00ffff" stroke-width="1" opacity="0.3"/>
   <line x1="120" y1="700" x2="120" y2="1024" stroke="#00ffff" stroke-width="1" opacity="0.3"/>
   <line x1="160" y1="700" x2="160" y2="1024" stroke="#00ffff" stroke-width="1" opacity="0.3"/>
   <line x1="200" y1="700" x2="200" y2="1024" stroke="#00ffff" stroke-width="1" opacity="0.3"/>
   <line x1="240" y1="700" x2="240" y2="1024" stroke="#00ffff" stroke-width="1" opacity="0.3"/>
   <line x1="280" y1="700" x2="280" y2="1024" stroke="#00ffff" stroke-width="1" opacity="0.3"/>
   <line x1="320" y1="700" x2="320" y2="1024" stroke="#00ffff" stroke-width="1" opacity="0.3"/>
   <line x1="360" y1="700" x2="360" y2="1024" stroke="#00ffff" stroke-width="1" opacity="0.3"/>
   <line x1="400" y1="700" x2="400" y2="1024" stroke="#00ffff" stroke-width="1" opacity="0.3"/>
   <line x1="440" y1="700" x2="440" y2="1024" stroke="#00ffff" stroke-width="1" opacity="0.3"/>
   <line x1="480" y1="700" x2="480" y2="1024" stroke="#00ffff" stroke-width="1" opacity="0.3"/>
   <line x1="520" y1="700" x2="520" y2="1024" stroke="#00ffff" stroke-width="1" opacity="0.3"/>
   <line x1="560" y1="700" x2="560" y2="1024" stroke="#00ffff" stroke-width="1" opacity="0.3"/>
   <line x1="600" y1="700" x2="600" y2="1024" stroke="#00ffff" stroke-width="1" opacity="0.3"/>
   <line x1="640" y1="700" x2="640" y2="1024" stroke="#00ffff" stroke-width="1" opacity="0.3"/>
   <line x1="680" y1="700" x2="680" y2="1024" stroke="#00ffff" stroke-width="1" opacity="0.3"/>
   <line x1="720" y1="700" x2="720" y2="1024" stroke="#00ffff" stroke-width="1" opacity="0.3"/>
   <line x1="760" y1="700" x2="760" y2="1024" stroke="#00ffff" stroke-width="1" opacity="0.3"/>
   <line x1="800" y1="700" x2="800" y2="1024" stroke="#00ffff" stroke-width="1" opacity="0.3"/>
   <line x1="840" y1="700" x2="840" y2="1024" stroke="#00ffff" stroke-width="1" opacity="0.3"/>
   <line x1="880" y1="700" x2="880" y2="1024" stroke="#00ffff" stroke-width="1" opacity="0.3"/>
   <line x1="920" y1="700" x2="920" y2="1024" stroke="#00ffff" stroke-width="1" opacity="0.3"/>
   <line x1="960" y1="700" x2="960" y2="1024" stroke="#00ffff" stroke-width="1" opacity="0.3"/>
   <line x1="1000" y1="700" x2="1000" y2="1024" stroke="#00ffff" stroke-width="1" opacity="0.3"/>
   <rect x="312" y="340" width="400" height="240" rx="20" ry="20" fill="none" stroke="#ff00ff" stroke-width="8"/>
   <rect x="260" y="580" width="500" height="30" fill="#ff00ff"/>
   <path d="M450,460 L480,430 L470,440 L495,465 L470,490 L480,500 L450,470" fill="none" stroke="#00ffff" stroke-width="6" stroke-linecap="round"/>
</svg>
